<?xml version="1.0" standalone="no"?><!DOCTYPE svg PUBLIC "-//W3C//DTD SVG 1.1//EN" "http://www.w3.org/Graphics/SVG/1.1/DTD/svg11.dtd"><svg t="1772638349023" class="icon" viewBox="0 0 1024 1024" version="1.1" xmlns="http://www.w3.org/2000/svg" p-id="23633" xmlns:xlink="http://www.w3.org/1999/xlink" width="200" height="200"><path d="M368.810667 108.928a42.666667 42.666667 0 1 0-76.288 38.144L413.013333 388.266667 216.192 252.842667a42.666667 42.666667 0 0 0-48.341333 70.314666l233.429333 160.512L130.261333 469.333333A42.666667 42.666667 0 1 0 125.738667 554.666667l247.253333 13.013333-183.338667 122.197333a42.666667 42.666667 0 1 0 47.36 70.997334l155.392-103.594667-107.093333 149.973333a42.666667 42.666667 0 1 0 69.418667 49.578667l129.408-181.205333-35.541334 213.418666a42.666667 42.666667 0 0 0 84.138667 13.994667l34.218667-205.226667 101.12 157.312a42.666667 42.666667 0 0 0 71.808-46.165333l-76.202667-118.528 118.058667 108.970667a42.666667 42.666667 0 0 0 57.856-62.72l-129.493334-119.552 180.608 22.613333a42.666667 42.666667 0 0 0 10.581334-84.693333l-178.773334-22.357334 183.253334-43.093333a42.666667 42.666667 0 1 0-19.541334-83.072l-238.506666 56.106667 175.146666-222.890667a42.666667 42.666667 0 1 0-67.072-52.736L591.232 396.373333l37.589333-240.469333a42.666667 42.666667 0 1 0-84.309333-13.141333l-37.802667 241.92-137.898666-275.754667z" fill="#919299" p-id="23634"></path></svg>